<?xml version="1.0" encoding="UTF-8" standalone="no"?>
<svg
   xmlns:dc="http://purl.org/dc/elements/1.1/"
   xmlns:cc="http://creativecommons.org/ns#"
   xmlns:rdf="http://www.w3.org/1999/02/22-rdf-syntax-ns#"
   xmlns:svg="http://www.w3.org/2000/svg"
   xmlns="http://www.w3.org/2000/svg"
   id="svg8"
   version="1.1"
   viewBox="0 0 67.733332 67.733336"
   height="256"
   width="256">
  <defs
     id="defs2">
    <marker
       style="overflow:visible"
       id="Torso"
       refX="0.0"
       refY="0.0"
       orient="auto">
      <g
         style="stroke:#00ff66;stroke-opacity:1;fill:#2aff80;fill-opacity:1"
         transform="scale(0.7)"
         id="g1085">
        <path
           style="fill:#2aff80;fill-opacity:1;fill-rule:evenodd;stroke:#00ff66;stroke-width:1.25;stroke-opacity:1"
           d="M -4.7792281,-3.2395420 C -2.4288541,-2.8736027 0.52103922,-1.3019943 0.25792722,0.38794346 C -0.0051877922,2.0778819 -2.2126741,2.6176539 -4.5630471,2.2517169 C -6.9134221,1.8857769 -8.5210350,0.75201414 -8.2579220,-0.93792336 C -7.9948090,-2.6278615 -7.1296041,-3.6054813 -4.7792281,-3.2395420 z "
           id="path1071" />
        <path
           style="fill:#2aff80;fill-opacity:1;fill-rule:evenodd;stroke:#00ff66;stroke-width:1pt;stroke-opacity:1"
           d="M 4.4598789,0.088665736 C -2.5564571,-4.3783320 5.2248769,-3.9061806 -0.84829578,-8.7197331"
           id="path1073" />
        <path
           style="fill:#2aff80;fill-opacity:1;fill-rule:evenodd;stroke:#00ff66;stroke-width:1pt;stroke-opacity:1"
           d="M 4.9298719,0.057520736 C -1.3872731,1.7494689 1.8027579,5.4782079 -4.9448731,7.5462725"
           id="path1075" />
        <rect
           style="fill-rule:evenodd;stroke-width:1pt;stroke:#00ff66;stroke-opacity:1;fill:#2aff80;fill-opacity:1"
           width="2.6366582"
           height="2.7608147"
           x="-10.391706"
           y="-1.7408575"
           transform="matrix(0.527536,-0.849533,0.887668,0.460484,0,0)"
           id="rect1077" />
        <rect
           style="fill-rule:evenodd;stroke-width:1pt;stroke:#00ff66;stroke-opacity:1;fill:#2aff80;fill-opacity:1"
           width="2.7327356"
           height="2.8614161"
           x="4.9587269"
           y="-7.9629307"
           transform="matrix(0.671205,-0.741272,0.790802,0.612072,0,0)"
           id="rect1079" />
        <path
           style="fill:#2aff80;fill-opacity:1;fill-rule:evenodd;stroke:#00ff66;stroke-width:1pt;stroke-opacity:1"
           d="M 16.779951 -28.685045 A 0.60731727 0.60731727 0 1 0 15.565317,-28.685045 A 0.60731727 0.60731727 0 1 0 16.779951 -28.685045 z"
           transform="matrix(0,-1.109517,1.109517,0,25.96648,19.71619)"
           id="path1081" />
        <path
           style="fill:#2aff80;fill-opacity:1;fill-rule:evenodd;stroke:#00ff66;stroke-width:1pt;stroke-opacity:1"
           d="M 16.779951 -28.685045 A 0.60731727 0.60731727 0 1 0 15.565317,-28.685045 A 0.60731727 0.60731727 0 1 0 16.779951 -28.685045 z"
           transform="matrix(0,-1.109517,1.109517,0,26.82450,16.99126)"
           id="path1083" />
      </g>
    </marker>
    <marker
       style="overflow:visible"
       id="EmptyTriangleInS"
       refX="0.0"
       refY="0.0"
       orient="auto">
      <path
         transform="scale(-0.2) translate(-3.0,0)"
         style="fill-rule:evenodd;fill:#2aff80;stroke:#00ff66;stroke-width:1pt;stroke-opacity:1;fill-opacity:1"
         d="M 5.77,0.0 L -2.88,5.0 L -2.88,-5.0 L 5.77,0.0 z "
         id="path1016" />
    </marker>
    <marker
       style="overflow:visible"
       id="marker1199"
       refX="0.0"
       refY="0.0"
       orient="auto">
      <path
         transform="scale(0.2) translate(7.4, 1)"
         style="fill-rule:evenodd;stroke:#00ff66;stroke-width:1pt;stroke-opacity:1;fill:#2aff80;fill-opacity:1"
         d="M -2.5,-1.0 C -2.5,1.7600000 -4.7400000,4.0 -7.5,4.0 C -10.260000,4.0 -12.5,1.7600000 -12.5,-1.0 C -12.5,-3.7600000 -10.260000,-6.0 -7.5,-6.0 C -4.7400000,-6.0 -2.5,-3.7600000 -2.5,-1.0 z "
         id="path1197" />
    </marker>
    <marker
       orient="auto"
       refY="0.0"
       refX="0.0"
       id="DistanceStart"
       style="overflow:visible">
      <g
         style="stroke:#00ff66;stroke-opacity:1;fill:#2aff80;fill-opacity:1"
         id="g2300">
        <path
           id="path2306"
           d="M 0,0 L 2,0"
           style="fill:#2aff80;stroke:#00ff66;stroke-width:1.15;stroke-linecap:square;stroke-opacity:1;fill-opacity:1" />
        <path
           id="path2302"
           d="M 0,0 L 13,4 L 9,0 13,-4 L 0,0 z "
           style="fill:#2aff80;fill-rule:evenodd;stroke:#00ff66;stroke-opacity:1;fill-opacity:1" />
        <path
           id="path2304"
           d="M 0,-4 L 0,40"
           style="fill:#2aff80;stroke:#00ff66;stroke-width:1;stroke-linecap:square;stroke-opacity:1;fill-opacity:1" />
      </g>
    </marker>
    <marker
       style="overflow:visible"
       id="DotS"
       refX="0.0"
       refY="0.0"
       orient="auto">
      <path
         transform="scale(0.2) translate(7.4, 1)"
         style="fill-rule:evenodd;stroke:#00ff66;stroke-width:1pt;stroke-opacity:1;fill:#2aff80;fill-opacity:1"
         d="M -2.5,-1.0 C -2.5,1.7600000 -4.7400000,4.0 -7.5,4.0 C -10.260000,4.0 -12.5,1.7600000 -12.5,-1.0 C -12.5,-3.7600000 -10.260000,-6.0 -7.5,-6.0 C -4.7400000,-6.0 -2.5,-3.7600000 -2.5,-1.0 z "
         id="path926" />
    </marker>
  </defs>
  <metadata
     id="metadata5">
    <rdf:RDF>
      <cc:Work
         rdf:about="">
        <dc:format>image/svg+xml</dc:format>
        <dc:type
           rdf:resource="http://purl.org/dc/dcmitype/StillImage" />
        <dc:title></dc:title>
      </cc:Work>
    </rdf:RDF>
  </metadata>
  <g
     transform="translate(0,-229.26665)"
     id="layer1">
    <rect
       ry="8"
       rx="8"
       y="229.26665"
       x="0"
       height="67.733353"
       width="67.733337"
       id="rect836"
       style="opacity:1;fill:#000000;fill-opacity:1;stroke:none;stroke-width:2.64583325;stroke-linecap:round;stroke-linejoin:round;stroke-miterlimit:4;stroke-dasharray:none;stroke-dashoffset:0;stroke-opacity:1" />
    <path
       id="path832"
       d="M 12.7,237.73332 4.2333334,254.66665 25.4,288.53332 h 16.933334 l 21.166667,-33.86667 -8.466667,-16.93333 c -12.700002,12.7 -29.633335,12.7 -42.333334,0 z"
       style="fill:none;stroke:#37c837;stroke-width:5.29166651;stroke-linecap:butt;stroke-linejoin:miter;stroke-miterlimit:4;stroke-dasharray:none;stroke-opacity:1" />
    <path
       d="m 33.866665,256.78332 8.248889,14.2875 -16.497778,0 z"
       id="path1487-9"
       style="opacity:1;fill:#37c837;fill-opacity:1;stroke:#37c837;stroke-width:5.29166651;stroke-linecap:square;stroke-linejoin:bevel;stroke-miterlimit:4;stroke-dasharray:none;stroke-dashoffset:0;stroke-opacity:1;paint-order:normal" />
  </g>
</svg>
